<svg width="20" height="20" viewBox="0 0 20 20" fill="none" xmlns="http://www.w3.org/2000/svg">
<g id="Icon/Settings">
<path id="Union" fill-rule="evenodd" clip-rule="evenodd" d="M9.91666 6.45829C9.91666 5.60685 10.6069 4.91663 11.4583 4.91663C12.3098 4.91663 13 5.60685 13 6.45829C13 7.30973 12.3098 7.99996 11.4583 7.99996C10.6069 7.99996 9.91666 7.30973 9.91666 6.45829ZM8.50983 7.20829C8.84385 8.52546 10.0373 9.49996 11.4583 9.49996C12.8794 9.49996 14.0728 8.52546 14.4068 7.20829H17.5C17.9142 7.20829 18.25 6.87251 18.25 6.45829C18.25 6.04408 17.9142 5.70829 17.5 5.70829H14.4068C14.0728 4.39112 12.8794 3.41663 11.4583 3.41663C10.0373 3.41663 8.84385 4.39112 8.50983 5.70829H2.5C2.08579 5.70829 1.75 6.04408 1.75 6.45829C1.75 6.87251 2.08579 7.20829 2.5 7.20829H8.50983ZM4.91667 13.125C4.91667 12.2735 5.60689 11.5833 6.45833 11.5833C7.30977 11.5833 8 12.2735 8 13.125C8 13.9764 7.30977 14.6666 6.45833 14.6666C5.60689 14.6666 4.91667 13.9764 4.91667 13.125ZM6.45833 16.1666C5.03729 16.1666 3.84385 15.1921 3.50983 13.875H2.5C2.08579 13.875 1.75 13.5392 1.75 13.125C1.75 12.7107 2.08579 12.375 2.5 12.375H3.50983C3.84385 11.0578 5.03729 10.0833 6.45833 10.0833C7.87937 10.0833 9.07281 11.0578 9.40683 12.375H17.5C17.9142 12.375 18.25 12.7107 18.25 13.125C18.25 13.5392 17.9142 13.875 17.5 13.875H9.40683C9.07281 15.1921 7.87937 16.1666 6.45833 16.1666Z" fill="#121212"/>
</g>
</svg>
