<svg width="99" height="32" viewBox="0 0 99 32" fill="none" xmlns="http://www.w3.org/2000/svg">
<g id="Group 74">
<path id="Vector" d="M32.9609 27.6191C32.1869 27.6002 31.5299 26.9736 31.5299 26.199L31.5314 0.888916H23.081V28.7877C23.081 30.1557 24.203 31.2708 25.5812 31.2708H40.3513C41.7372 31.2708 42.8462 30.155 42.8462 28.7877V0.888916H34.4026L34.3957 26.199C34.3965 26.9736 33.7379 27.6002 32.9609 27.6191ZM61.2523 0.888916H48.4645C48.1029 0.88951 47.745 0.96047 47.4112 1.09773C47.0774 1.23498 46.7743 1.43585 46.5192 1.68884C46.2641 1.94182 46.0621 2.24197 45.9246 2.5721C45.7871 2.90224 45.717 3.25589 45.7181 3.61282V31.2708H54.177V5.90186C54.178 5.71765 54.2157 5.53546 54.2882 5.36568C54.3606 5.19591 54.4662 5.0419 54.5989 4.91246C54.7317 4.78301 54.889 4.68068 55.0619 4.61131C55.2348 4.54194 55.4198 4.5069 55.6064 4.5082C56.3957 4.5082 57.029 5.10915 57.0473 5.87996V31.2716H65.4695V5.87921C65.4817 5.10839 66.1135 4.50744 66.902 4.50744C67.6829 4.50744 68.3284 5.12349 68.3345 5.9011V31.2708H76.7942V3.61282C76.795 3.25578 76.7245 2.90208 76.5868 2.57193C76.4491 2.24178 76.2468 1.94166 75.9915 1.6887C75.7363 1.43574 75.433 1.23491 75.0991 1.09768C74.7652 0.960451 74.4071 0.88951 74.0454 0.888916H61.2523ZM17.4443 23.6366H8.90735V31.2708H0.460693V0.888916H17.4978C19.0228 0.888916 20.2137 2.11271 20.2137 3.62489V20.8969C20.2148 21.2565 20.1439 21.6127 20.0052 21.9452C19.8665 22.2777 19.6627 22.5799 19.4054 22.8345C19.1481 23.089 18.8424 23.2909 18.5058 23.4286C18.1693 23.5662 17.8085 23.6369 17.4443 23.6366ZM11.7731 5.95395C11.7758 5.76625 11.7408 5.57989 11.6704 5.40553C11.5999 5.23118 11.4953 5.07226 11.3625 4.93789C11.2297 4.80351 11.0714 4.69633 10.8965 4.62247C10.7217 4.5486 10.5338 4.50951 10.3437 4.50744H8.90735V19.8747H10.3437C11.0878 19.8747 11.78 19.2903 11.7731 18.447V5.95395Z" fill="#A7A7A7"/>
<path id="Vector_2" d="M89.6008 31.4009V23.7876H86.6742V31.4009H78.0776V3.79672C78.0776 2.28974 79.3318 1.07812 80.8757 1.07812H95.4001C95.7687 1.07842 96.1335 1.14901 96.4738 1.28586C96.8141 1.42271 97.1231 1.62313 97.3832 1.87564C97.6433 2.12815 97.8494 2.42781 97.9896 2.75745C98.1299 3.0871 98.2015 3.44026 98.2005 3.79672V31.4009H89.6008ZM89.6008 20.0329V6.07C89.5798 5.29843 88.9356 4.70468 88.1332 4.70468C87.7504 4.70404 87.3827 4.84922 87.1096 5.10882C86.8366 5.36842 86.6802 5.72156 86.6742 6.09185V20.0329H89.6008Z" fill="#A7A7A7"/>
</g>
</svg>
