<svg width="160" height="80" viewBox="0 0 160 80" fill="none" xmlns="http://www.w3.org/2000/svg">
<g id="Pieces/Logos">
<path id="Union" fill-rule="evenodd" clip-rule="evenodd" d="M120.672 21.5942C119.906 20.8273 118.837 20.4441 117.851 20.4441H42.4426C41.4699 20.4441 40.4016 20.8685 39.662 21.5942L24.5279 36.7946C22.967 38.3422 22.9945 40.8625 24.5554 42.4095L39.7033 57.5148C40.4291 58.2411 41.4699 58.6649 42.4426 58.6649H117.878C118.837 58.6924 119.905 58.3093 120.672 57.5423L135.819 42.3826C137.34 40.8625 137.34 38.3153 135.819 36.7952L120.672 21.5942ZM119.603 55.3777C118.919 56.0628 118.015 56.3922 117.11 56.3922V56.3928H42.9489C42.0994 56.3641 41.168 56.0084 40.511 55.3508L27.1578 42.0126C25.8025 40.6568 25.775 38.4522 27.1309 37.0964L40.4841 23.7307C41.1411 23.0875 42.0725 22.7174 42.9495 22.7174H117.11C117.987 22.7449 118.919 23.0869 119.603 23.7582L132.956 37.1239C133.608 37.7762 133.973 38.6603 133.973 39.582C133.973 40.5037 133.608 41.3878 132.956 42.0401L119.603 55.3777ZM58.0517 44.5041C59.6754 47.4923 57.7104 50.8381 54.1902 50.8381V50.8375H43.588C43.015 50.8093 42.7422 50.5202 42.7148 49.9558V47.1473C42.7158 47.0187 42.7421 46.8917 42.7921 46.7734C42.8422 46.6552 42.915 46.5481 43.0063 46.4585C43.0977 46.3689 43.2058 46.2985 43.3244 46.2513C43.4429 46.2042 43.5696 46.1813 43.697 46.1839H50.3966C50.9011 46.1839 51.0381 45.7842 50.8469 45.4952C50.1192 44.5717 49.1285 43.4551 48.055 42.2452C45.8477 39.7575 43.2904 36.8754 41.95 34.4667C40.8588 32.5116 41.7588 28.2709 45.2659 28.2709H55.4315C55.964 28.2709 56.3595 28.7252 56.3869 29.2349V32.0302C56.3869 32.6222 56.1415 32.8698 55.5137 32.8974H49.5782C48.923 32.8974 48.8408 33.3933 49.0731 33.6409C50.0172 34.784 51.1183 36.0002 52.2348 37.2336C54.5073 39.7439 56.8439 42.3251 58.0517 44.5041ZM65.898 41.448V49.9017C65.898 50.4114 65.4197 50.8381 64.998 50.8381H60.9179C60.4944 50.8381 60.0441 50.4114 60.0167 49.9294L59.9899 29.2355C59.9899 28.6988 60.3443 28.2721 60.9995 28.2444H64.8747C65.4477 28.2444 65.898 28.6982 65.898 29.2355V36.2847H70.51V29.2355C70.51 28.8088 70.8513 28.2721 71.547 28.2444H75.4364C76.0774 28.2444 76.4186 28.6982 76.4186 29.2355L76.446 49.9017C76.446 50.4661 75.9958 50.8381 75.4907 50.8381H71.4106C71.0419 50.8381 70.4826 50.3837 70.4826 49.9017V41.448H65.898ZM111.364 50.8381H98.6054C98.1277 50.8105 97.6506 50.3008 97.6232 49.9017V29.2355C97.6232 28.7811 98.1277 28.2985 98.6328 28.2715H111.336C111.951 28.2715 112.264 28.6159 112.264 29.2079V32.0308C112.291 32.5404 111.842 32.898 111.418 32.898H103.763V36.8491H108.798C109.303 36.9038 109.726 37.3034 109.698 37.7301V40.5939C109.726 41.0213 109.358 41.5027 108.853 41.475H103.763V46.1563H111.391C111.923 46.1563 112.319 46.5559 112.319 47.1203V49.9017C112.319 50.5899 111.923 50.8105 111.364 50.8381ZM118.732 50.8105H114.966C114.515 50.8105 114.065 50.4661 114.038 49.9294V29.2079C114.038 28.6159 114.378 28.2985 114.993 28.2715H118.677C119.21 28.2715 119.578 28.6982 119.606 29.2079V49.9294C119.606 50.4937 119.237 50.8105 118.732 50.8105ZM78.7791 31.4797C78.5337 36.851 78.5337 42.2309 78.7791 47.6023C78.7791 49.0207 80.3343 50.8658 81.9854 50.8658H92.0016C93.7075 50.8658 95.1269 49.1583 95.1269 47.6023C95.3997 42.1085 95.3997 36.7391 95.1269 31.452C95.0858 30.0613 93.4341 28.2715 92.0016 28.2715H82.0128C80.267 28.3268 78.8339 30.1719 78.7791 31.4797ZM88.5356 46.4051C87.4575 46.4598 86.4199 46.4598 85.4103 46.4051C85.0422 46.3768 84.6741 46.0331 84.6467 45.3311C84.4281 41.4756 84.3328 37.6208 84.6467 33.7521C84.7015 33.0771 84.988 32.7328 85.4103 32.6775C86.4205 32.5675 87.4849 32.5675 88.5356 32.6498C88.8769 32.6498 89.1497 33.1042 89.1765 33.7515C89.4356 37.6202 89.4356 41.448 89.1765 45.3305C89.1497 45.8954 88.9859 46.3774 88.5356 46.4051Z" fill="#A7A7A7"/>
</g>
</svg>
